<svg xmlns="http://www.w3.org/2000/svg" viewBox="0 0 750 187.02"><defs><style>.cls-1{fill:#456fce;}.cls-1,.cls-2,.cls-3{fill-rule:evenodd;}.cls-2{fill:#304fa8;}.cls-3{fill:#1f3376;}</style></defs><title>Fichier 2bg-front-cursus</title><g id="Calque_2" data-name="Calque 2"><g id="BACKGROUND_2" data-name="BACKGROUND 2"><path class="cls-1" d="M750,25.59c-.74-.24-.91-.81-1.58-1.09a11.87,11.87,0,0,0-5.82,1.18,7,7,0,0,0-3.7.2c-1-.15-2-.23-2.46-.69-.53,0-.63.3-1.41.2A4.78,4.78,0,0,0,733.27,24c-.17.21-1.11-.21-1.41.1-.63,0-.65.29-1.23.29a1.31,1.31,0,0,1-.88-.59c-.6.17-1.25-.12-1.94.1-.33-.6-1-1-1.41-1.57a7.91,7.91,0,0,1-.88-.69c-.37-.16-.91-.22-1.06-.49-.4.26-.4.75-1.05.88-1.16-.14-2.21-.34-2.47-1-.76,0-.79.48-1.76.39-1.66-.22-1.82-1.28-3.17-1.67-.23-.43-.76-.69-1.06-1.08s-.51-.83-1.05-1.08c-1.09-.12-1.16.34-1.94.39-.73-.58-2.33-.67-3.35-1.08-1.35.26-1.48,1.2-2.64,1.57a6.86,6.86,0,0,1-1.76-.29c-.46.09-1.18.17-1.41-.1a5.41,5.41,0,0,0-1.41.49c-.75,0-.86-.43-1.59-.49-.36,0-.16.36-.52.39s-.76,0-.71.3a3.07,3.07,0,0,0-1.05.78,12.19,12.19,0,0,1-1.41-.59c-.62.38-.8,1-1.59,1.28a2.65,2.65,0,0,1-2.11-.39c-.48-.27-.44.25-1.06.2a4.55,4.55,0,0,0-1.59-.79c-.59-.26-.66.43-1.41.39a1.74,1.74,0,0,0-1.41-.2c-.61,0-.61-.44-1.4-.39-.37-.19-1.17-.14-1.23-.49a3.05,3.05,0,0,1-1.41,0c-.37-.28-1-.45-1.24-.79-.2-.14-.21-.4-.53-.49-.56.09-.36-.25-.7-.29-1.26,0-1.36.75-1.94,1.18-.85.05-.74.63-1.58.69-.27-.28-1.1-.25-1.59-.4-.63-.59-1-1.36-1.94-1.77-.61.31-.63,1-1.23,1.28a26.7,26.7,0,0,0-2.64,2.56c-.77-.13-1.77-.17-2.12.19-.54,0-1.14-.23-1.58,0-.66.13-.82.53-1.23.79a12.84,12.84,0,0,0-1.59.59c-3-.05-4,1.07-6.51,1.28-.86,0-1-.42-1.76-.49s-1.29-.21-2.12-.2c-.72-.38-2-.45-2.64-.89a13.43,13.43,0,0,0-2.47-.88c-1.49-.71-3-1.4-4.4-2.16-.62-.77-1.63-1.32-2.29-2.07a6.09,6.09,0,0,1-1.94-.78c-.4-.17-1.35,0-1.58-.3A13.14,13.14,0,0,0,635.69,14c-.66-.08-.38.37-.88.39S634,14,633.23,14a1.73,1.73,0,0,0-1.06.2c-.06-.23-.77-.1-.88-.3a12.9,12.9,0,0,1-1.41.3c-.78-.09-.92-.54-1.76-.59a2.88,2.88,0,0,0-2.11,1c-.42,0-.33-.34-.88-.3a1.76,1.76,0,0,1-1.41.59c-.24.3-.8.41-1.23.59a7,7,0,0,0-.89.69c-.46.07-1,.08-1.23.3s-.8.2-.88.49a5.63,5.63,0,0,0-1.77.88c-.7.07-1.11.3-1.75.4a2.37,2.37,0,0,0-1.24,1,3.49,3.49,0,0,0-1.41.29,1.7,1.7,0,0,0-.7.79c-.83,0-1-.43-1.59-.59a11.61,11.61,0,0,1-1.94-.1c-.18-.25-1-.13-1.22-.39-.49-.06-.44-.41-1.06-.39a14.38,14.38,0,0,0-2.12.19c-.88-.19-1.11-.75-2.29-.78-.61-.19-.88,0-1,.29a12.82,12.82,0,0,0-3.17-.29,14.06,14.06,0,0,0-2.65-.59c-.93.16-1.27.66-1.93,1-.69.1-1-.22-1.41,0a1.18,1.18,0,0,1-.88.39c-.39-.24-1-.34-1.41-.59-.65.1-.9.42-1.59.5s-.9.34-1.41.49-.46-.39-.88-.49-.77.07-1-.1-.36-.3-.71-.5A3.41,3.41,0,0,0,582.5,20a21.74,21.74,0,0,0-2.29-.5c-1.11.26-2.19-.06-2.64.5-.6,0-.15-.64-.88-.59-.15-.25-.48-.39-.53-.69-.73,0-.28.63-1.23.49a2.21,2.21,0,0,1-1.41-.29c-.3-.34-1.16.25-1.24-.2-.78.11-.84.64-1.58.78a4.67,4.67,0,0,1-1.94.5c-1-.19-.89-.95-1.41-1.38-1.13,0-.85.7-2.11.59-1.54-.06-1.82-.82-3.17-1-1.25.21-2.34.53-3.7.69-.85,0-.51-.57-1.24-.6a2,2,0,0,0-1.93,1.18c-.27,0-.36-.2-.53-.29s-.23,0-.35-.1-.13-.25-.35-.39-.49-.12-1.06-.3c-.8,0-.93.47-1.41.69s-.58,0-1.23,0c-.27.38-.71.66-.88,1.08a27.34,27.34,0,0,0-2.82.4c-.63.1-.78.48-1.06.78-.56-.17-.6-.64-1.41-.68a2.9,2.9,0,0,0-1.41.19c-.26-.4-1-.58-1.05-1.08-.48-.29-.57-.8-1.41-.88-.55-.28-.58.33-1.06.39-.36-.26-.36.51-1,.39-.46-1.06-2-1.52-2.29-2.65a6.86,6.86,0,0,0-2.12.68,3.37,3.37,0,0,0-1.58.3c-.65.07-.76-.17-1.41-.1-1,.2-2.07.35-2.47.89-.52-.39-1.13,0-1.76.1-.26.27-.72-.18-.88.09a1,1,0,0,1-.88,0c-.44.35-.6.85-1.05,1.18a3.38,3.38,0,0,1-1.41-.29,11.06,11.06,0,0,1-3.7,2c-.52.6-1.13,1.15-1.59,1.77-.65.49-.65,1.34-1.59,1.68-.62.32-.81-.2-1.4-.2-.37-.29-.93.13-1.59,0-.6.22-.72.71-1,1.08s-.91.54-1.41.79a7,7,0,0,1-2.65-.49c-1,.08-.89.81-1.94.88-1.25,0-1.66-.38-2.81-.39-1.47.1-1.8.83-3.18,1-.78,0-.54-.55-1.05-.69a6.66,6.66,0,0,0-2.29-.39c-.34-.34-1-.48-1.23-.89-.66,0-.48.52-1.24.5a3.13,3.13,0,0,0-1.41-.79.85.85,0,0,0-.87.29c-.24.24-.66-.1-.71.1-1.08-.18-1.82-.55-3-.68a6.41,6.41,0,0,0-3.18,1.17c-.95-.07-1,.34-1.58.5a10.86,10.86,0,0,1-1.58.09c-.81.05-.85.52-1.41.69-.6-.18-.85,0-1.59,0-1.66-.22-2.87-.69-4.4-1-.49-.32-1-.65-1.41-1A2,2,0,0,0,471,25c-.76,0-1.36.1-1.58.4-.7-.23-.76.23-1.41.29-.95-.12-1.27-.6-1.94-.89-1-.09-1.61-.5-2.29-.49,0-.33-.52-.36-.88-.49-1.3-1.87-2.47-3.8-3.88-5.6-.91-.18-1.17-.72-2.46-.69a2.06,2.06,0,0,0-1.06-.49c-.11-.21-.34,0-.53,0s-.17-.26-.52-.2c-.82-.3-.88-1-2.12-1.08-.28-.63-1.3-.85-1.76-1.38-.78-.1-.58.33-1.23.3-.2-.48-1.2-.52-1.59-.89-.46.34-.76.76-1.23,1.08-.34.16-.87-.17-1.41-.19-.49.25-.78.61-1.24.88-.56,0-.42-.35-.7-.49-.55,0-.22.53-.88.49-.27.18-1.21,0-1.06.4-.3-.1-.32-.35-.52-.5a2.15,2.15,0,0,0-1.59,1.18c-1.2.06-1.27.74-2.47.79a3.61,3.61,0,0,1-1.58-.29c-1,0-.45-.86-1.41-.89-1.18-.07-1.19.52-1.76.79-.07.25-.53.29-.53.59a.88.88,0,0,0-.88.29c-.61.16-.53,0-.88-.2-.65.07-.88.43-1.23.4-.45.25-.8.05-1.59.19a1.86,1.86,0,0,1-1.23-.59c-1,0-1.23.37-2.11.4-.08-.22-1-.1-.89.1-.45,0-.28-.37-.52-.5a4.57,4.57,0,0,1-1.24.1c-1.32-.93-3.35-1.47-4.93-2.26-2-.51-3.36-1.4-5.28-2-2.07-.26-4.07-.55-6-.89-.69,0-.86.18-1.59.1a17.52,17.52,0,0,0-3.34-.39,9.63,9.63,0,0,0-3.17-.4,12.17,12.17,0,0,0-2.3-.49,16.66,16.66,0,0,1-6.86-.59,11.55,11.55,0,0,1-1.94.1c-.85,0-.89-.42-1.94-.29-.51-.18-1.35-.17-1.93-.3-1.19-.07-1.94.1-3,.1a23,23,0,0,0-4.23-.3c-2.55-.64-4.83-1.43-7.39-2.06a22.6,22.6,0,0,1-3.7-.1c-.14,0-.19.1-.18.1a18.29,18.29,0,0,0-3.35.1,24.48,24.48,0,0,1-3-.69c-1.26-.12-1.7.23-2.82.19A33.39,33.39,0,0,1,349.13,7a38.06,38.06,0,0,1-5.47-.49,8.63,8.63,0,0,0-1.76,0,30.84,30.84,0,0,0-4.4-1c-.69-.3-1.38-.6-2.11-.88a3,3,0,0,1-1.24-.2,6.6,6.6,0,0,0-1.93.2,9.92,9.92,0,0,0-2.65-.59,10.14,10.14,0,0,0-3.34.78c-1.17.24-2.73.25-4.05.4-3.24-.3-6.75.16-8.63-.89-2.41.11-4.15-.61-5.81-.59-1.07-.22-1.68-.7-2.65-1-1.93-.3-4.15-.44-5.46-1.08-1.19-.09-2.29-.23-3.34-.39-3.44-.06-6-.27-9.51-.1a8.38,8.38,0,0,0-1.59.29,12.36,12.36,0,0,0-1.58-.1c-.65-.06-.68.22-1.24.2-3.53,0-6.18.14-8.8.2A34.19,34.19,0,0,0,270,2.87c-1.09-.46-3.24,0-4.23-.1s-1.4-.53-2.46-.59a4.7,4.7,0,0,0-2.29-.59,7.22,7.22,0,0,0-2.29-1,13,13,0,0,1-3.88-.5c-1.27,0-2,.33-3.34.3-.89,0-1.14-.35-1.94-.39-1.13-.08-1.79.11-2.82.09a16.37,16.37,0,0,1-3,.5c-1.84.08-3.7-.31-5.46-.3a23.1,23.1,0,0,0-3.52.4,9.44,9.44,0,0,0-2.29.59c-1.17-.2-2,.34-2.64.09-1.37.55-3.56.64-4.59,1.38-.33.18-.31-.06-.87,0a11.69,11.69,0,0,0-1.59.69,13.32,13.32,0,0,0-3.7.88,19.33,19.33,0,0,0-5.46.79,13.23,13.23,0,0,0-3-.79c-1.29.1-2.4.3-3.53.49-1.4-.26-2.09-.92-3.34-1.27a34.31,34.31,0,0,0-4.06,0,17.63,17.63,0,0,0-3.34,1.18,34,34,0,0,1-3.52,1.08c-1.8.21-4.39,0-6.17.2-.92-.18-1.78-.39-2.82-.5a43.45,43.45,0,0,0-6.87,2,21.37,21.37,0,0,0-2.81.69c-2.49.69-5.25,1.36-7.75,2.16-1.41.23-3,.35-4.58.49a38.79,38.79,0,0,0-4.58,1.38c-1.24-.07-1.84.22-3,.2a10.88,10.88,0,0,1-2.28-.3,13,13,0,0,1-3.18,0A20.44,20.44,0,0,0,144.28,11c-2.58,0-4,.71-6.16,1a10.88,10.88,0,0,0-2.11.69c-.81,0-1.35.23-2.12.3A13.55,13.55,0,0,0,130,14.67a45.12,45.12,0,0,1-6.87,1.47c-1.5,0-2.71-.26-4.4-.19s-3,.58-4.58.78c-.84.26-1.7.5-2.47.79a32.42,32.42,0,0,0-8.28,2.16,16.09,16.09,0,0,0-3.34,1.48c-1.23.42-2.06,1.08-3.17,1.57-2,.05-3,.66-4.58,1a9.87,9.87,0,0,0-3,.2c-.82.1-.59-.39-1.41-.3a21.57,21.57,0,0,0-5.46,1.09c-.86,0-1.64.13-2.46.19-.86-.13-.58-.64-1.77-.39A4.9,4.9,0,0,0,76,23.22c-.19-.71-.92-1.13-1.59-1.57-.62.11-1.45.11-2.11.19s-.55-.54-1.06-.68a2,2,0,0,0-1.06-.69c-.55-.26-.87.24-1.76.1a18,18,0,0,1-2.46-1.09c-1,.05-1.24.5-2.12.6a2.67,2.67,0,0,1-1.06-.1c-.57.17-1.32.66-2.11.39a2.1,2.1,0,0,0-1.06.88,6.42,6.42,0,0,0-3,.79,11.55,11.55,0,0,0-1.94.1c-1.58.49-2.41,1.41-4.22,1.77-1.08,0-1.86-.21-2.82-.3A4.68,4.68,0,0,0,46,24.3c-.76-.22-.93-.79-2.29-.69-1-.12-.89.43-1.41.59-.81-.06-1-.67-1.93-.39-.07-.36-.41-.56-.88-.69-1-.25-1.23.14-2.12.2-.11-.33-.54-.48-.7-.79s-.78.19-1.06-.1c-.57-.86-1.75-1.38-2.29-2.26-1.44.18-1.55,1.1-2.46,1.58a2.09,2.09,0,0,1-1.76-.5c-.64,0-.86.19-1.41.2-.17-.4-.83-.52-.89-1-.84.28-1.88.46-2.64.78a13.37,13.37,0,0,1-2.29-1c-.4-.13-.41-.49-.88-.59s-.91-.21-1.06-.49a1.37,1.37,0,0,0-1.23.29c-.83-.3-1.34-1-2.82-.68-.43-.51-1.17-.85-1.41-1.48-.69,0-.53.43-1.23.2-.06-.49-1-.48-1.05-1a2.67,2.67,0,0,1-.89-1,6.49,6.49,0,0,1-1.58-2.06,11.44,11.44,0,0,0-2.64.19,5.42,5.42,0,0,1-2.47-1.86A4,4,0,0,1,2,10.44a5,5,0,0,1-2-.38V122.23H750Z"/><path class="cls-2" d="M750,46.15c-.38-.22-.85-.39-1-.73-.72,0-.52.58-1.36.55a3.51,3.51,0,0,0-1.55-.87,1,1,0,0,0-1,.32c-.27.27-.73-.12-.78.11-1.2-.2-2-.61-3.31-.76a7.09,7.09,0,0,0-3.5,1.3c-1.06-.08-1.15.38-1.75.55a13,13,0,0,1-1.75.11c-.89,0-.93.56-1.56.76-.66-.2-.93,0-1.75,0-1.84-.25-3.18-.77-4.86-1.09q-.81-.52-1.56-1.08a2.13,2.13,0,0,0-1.55-1c-.84,0-1.5.1-1.75.43-.77-.24-.83.26-1.56.33-1-.14-1.4-.67-2.14-1-1.09-.1-1.77-.56-2.53-.54,0-.37-.57-.41-1-.55-1.43-2.06-2.72-4.19-4.28-6.18-1-.21-1.29-.8-2.72-.76a2.25,2.25,0,0,0-1.17-.55c-.12-.22-.38,0-.58,0s-.19-.28-.59-.21c-.89-.34-1-1.13-2.33-1.2-.31-.7-1.44-.93-2-1.52-.85-.11-.64.37-1.36.33-.22-.53-1.32-.57-1.75-1-.51.37-.84.84-1.36,1.2-.37.17-.95-.19-1.56-.22-.53.28-.85.68-1.36,1-.62,0-.47-.38-.77-.54-.62,0-.25.59-1,.54-.29.2-1.33,0-1.17.44-.34-.1-.35-.38-.58-.54a2.33,2.33,0,0,0-1.75,1.3c-1.32.06-1.4.81-2.72.87a3.8,3.8,0,0,1-1.75-.33c-1.11,0-.51-.95-1.56-1-1.3-.07-1.31.57-2,.87-.07.29-.58.33-.58.65a1,1,0,0,0-1,.33c-.67.18-.59,0-1-.22-.72.08-1,.48-1.36.44-.5.28-.89.06-1.76.21a2.15,2.15,0,0,1-1.36-.65c-1.09,0-1.35.41-2.33.44-.08-.24-1.07-.11-1,.11-.5,0-.32-.41-.58-.55a5.54,5.54,0,0,1-1.37.11c-1.46-1-3.71-1.62-5.45-2.5-2.22-.56-3.69-1.55-5.83-2.17-2.28-.28-4.49-.6-6.61-1-.76-.06-.95.19-1.75.1a20.24,20.24,0,0,0-3.69-.43,10.71,10.71,0,0,0-3.51-.43,11.76,11.76,0,0,0-2.53-.55,18.47,18.47,0,0,1-7.58-.65,14,14,0,0,1-2.14.11c-.94,0-1-.47-2.14-.33-.57-.19-1.49-.18-2.14-.32-1.3-.08-2.14.11-3.31.11a24.86,24.86,0,0,0-4.66-.33c-2.83-.7-5.34-1.58-8.18-2.28a23.94,23.94,0,0,1-4.08-.11.2.2,0,0,0-.2.11,19.41,19.41,0,0,0-3.69.11,23.77,23.77,0,0,1-3.31-.76c-1.39-.13-1.87.26-3.11.22a38.29,38.29,0,0,1-5.25-.87,40.23,40.23,0,0,1-6-.55,10.58,10.58,0,0,0-2,0,34.76,34.76,0,0,0-4.86-1.08c-.76-.33-1.53-.67-2.33-1a3,3,0,0,1-1.36-.22,7.55,7.55,0,0,0-2.14.22,10.9,10.9,0,0,0-2.92-.65c-1.77,0-2.49.57-3.69.87s-3,.27-4.48.43c-3.58-.33-7.46.18-9.53-1-2.66.12-4.58-.68-6.42-.65-1.17-.25-1.85-.78-2.91-1.09-2.15-.33-4.59-.48-6-1.2-1.32-.09-2.54-.24-3.7-.43-3.79-.06-6.63-.29-10.5-.11a9.92,9.92,0,0,0-1.75.33,10.38,10.38,0,0,0-1.75-.11c-.72-.07-.75.23-1.37.22-3.89,0-6.82.15-9.73.21-1.51.28-2.53.83-3.88,1.2-1.21-.51-3.58,0-4.67-.11s-1.55-.58-2.72-.65a5.2,5.2,0,0,0-2.53-.65,8.11,8.11,0,0,0-2.53-1.09,14.17,14.17,0,0,1-4.28-.54c-1.41,0-2.2.36-3.7.32-1,0-1.25-.38-2.13-.43-1.25-.08-2,.13-3.11.11a18,18,0,0,1-3.31.54c-2,.09-4.09-.34-6-.32a25.44,25.44,0,0,0-3.89.43,11.24,11.24,0,0,0-2.53.65c-1.29-.21-2.16.39-2.92.11-1.51.6-3.93.7-5.05,1.52-.38.2-.36-.07-1,0a13.36,13.36,0,0,0-1.75.76,14.62,14.62,0,0,0-4.08,1,21.07,21.07,0,0,0-6,.87,14,14,0,0,0-3.31-.87c-1.42.11-2.65.33-3.89.54-1.55-.29-2.32-1-3.7-1.41a39.15,39.15,0,0,0-4.47,0,19.89,19.89,0,0,0-3.69,1.3,37.37,37.37,0,0,1-3.9,1.2c-2,.23-4.84,0-6.8.21-1-.19-2-.42-3.11-.54A47.55,47.55,0,0,0,398.09,25a24,24,0,0,0-3.11.76c-2.74.77-5.79,1.5-8.56,2.39-1.55.26-3.33.38-5.05.54a41,41,0,0,0-5.06,1.52c-1.37-.08-2,.25-3.31.22a11.19,11.19,0,0,1-2.53-.33,13.66,13.66,0,0,1-3.5,0,23.12,23.12,0,0,0-5.06-1.19c-2.85,0-4.43.78-6.8,1.09a12.36,12.36,0,0,0-2.34.76c-.89,0-1.48.25-2.33.32a15,15,0,0,0-4.28,1.85,49.11,49.11,0,0,1-7.59,1.63c-1.66-.06-3-.29-4.86-.22s-3.25.65-5.06.87c-.92.28-1.87.54-2.72.87a35.56,35.56,0,0,0-9.14,2.39,18.57,18.57,0,0,0-3.7,1.62c-1.36.48-2.27,1.2-3.5,1.74-2.24,0-3.36.73-5.06,1.09-1.17,0-2.67-.12-3.3.21-.91.11-.65-.43-1.56-.32a23.73,23.73,0,0,0-6,1.19c-.95.05-1.81.15-2.72.22-.94-.15-.63-.72-1.95-.44a5.35,5.35,0,0,0-2.52-1.41c-.21-.79-1-1.24-1.75-1.73-.69.12-1.6.12-2.34.21s-.6-.6-1.17-.76a2.34,2.34,0,0,0-1.16-.76c-.61-.28-1,.27-1.95.11a20.62,20.62,0,0,1-2.72-1.19c-1.09,0-1.36.54-2.33.65a3,3,0,0,1-1.17-.11c-.63.19-1.46.73-2.34.43a2.29,2.29,0,0,0-1.16,1,7.15,7.15,0,0,0-3.31.87,13.92,13.92,0,0,0-2.14.11c-1.75.54-2.66,1.55-4.67,2-1.18,0-2.05-.23-3.11-.32a5.05,5.05,0,0,0-1.75.76c-.85-.25-1-.88-2.53-.76-1.14-.14-1,.46-1.55.65-.9-.07-1.15-.74-2.14-.44-.07-.39-.46-.61-1-.76-1.09-.27-1.35.16-2.33.22-.13-.36-.6-.53-.78-.87s-.85.21-1.16-.1c-.63-1-1.94-1.53-2.53-2.5-1.59.2-1.72,1.21-2.73,1.74a2.34,2.34,0,0,1-1.94-.55,13.63,13.63,0,0,0-1.56.22c-.18-.45-.91-.57-1-1.09-.93.32-2.07.51-2.92.87a15.91,15.91,0,0,1-2.53-1.08c-.44-.15-.45-.55-1-.65s-1-.24-1.17-.55a1.49,1.49,0,0,0-1.36.33c-.92-.34-1.48-1.15-3.11-.76-.48-.57-1.3-.94-1.55-1.63-.77,0-.6.47-1.37.22-.06-.55-1.12-.54-1.16-1.09a2.9,2.9,0,0,1-1-1.09,7.25,7.25,0,0,1-1.75-2.28,12.43,12.43,0,0,0-2.91.22,6,6,0,0,1-2.73-2.06,4.48,4.48,0,0,1-2.92-1.52,8.42,8.42,0,0,1-3.11-.76h-2.53a17.34,17.34,0,0,1-2.52-1.63c-.62.05-.52-.29-1-.33a1,1,0,0,1-1-.32c-.5-.26-1.25-.39-1.75-.65,0-.19-.14-.29-.39-.33-.34-.68-.85-1.26-1.16-1.95a4.67,4.67,0,0,0-2-1.2c-1.72.13-2.24.92-3.89,1.09-.54.22-1-.33-1.36-.55a6.23,6.23,0,0,0-1.75-.54c-1.1.26-1,1.16-1.75,1.63-.56-.3-.82-.77-1.36-1.09a1.78,1.78,0,0,1-1.56,0c-.44.19-1.46.06-1.75.33-.49.13-.65.43-1.36.44a14.74,14.74,0,0,1-1-1.31c-.11-.55-.9-.73-1.56-1-1.26.05-1.4.74-2.14,1.08-1.83-.71-2.69-2-4.47-2.71-2.09.54-2.81,1.83-4.48,2.6-.83-.1-1.59-.75-2.72-.65a1.76,1.76,0,0,0-1.36.65c-.23.31-1,.34-1.37.54a20,20,0,0,1-3.5-.54c-.51-.29-.73.14-1.16.22s-.94-.47-1.36-.11A7.78,7.78,0,0,0,147,19.58a9,9,0,0,0-1.36,1.74c-1,.4-2.06.81-3.12,1.19-.83-.36-.92-1.14-1.55-1.62-1.5.39-1.47,1.63-3.31,1.84-.75,0-.71-.47-.78-.87-.46-.14-.37-.58-.58-.87s-.52.13-.78.11a2.37,2.37,0,0,1-.58-.43c-.34-.28-1.36-.19-2-.33a16.93,16.93,0,0,0-2.52,3.37c-.75,0-.42-.56-1.17-.54-2.73.5-3.85,1.9-5.45,3-.53,0-.39.18-.78,0,0-.28-.14-.14-.39-.11-.78.28-1.63.53-1.74,1.19a6,6,0,0,0-1.37.11,8.7,8.7,0,0,1-1.55,2c-.12.41-.55.64-.78,1-.44.23-.49.67-1.17.76-.64.28-.78-.44-1-.76A6,6,0,0,1,112,30a18.35,18.35,0,0,0-2.14-1.85,7.48,7.48,0,0,0-2,0c-.36-.59-2-.45-2.92-.76-.83.1-1.83-.06-3.11,0-1.12-.06-.82-.92-1.94-1-2.11-.06-2.7.74-4.67.76a5,5,0,0,0-2.14,1.09c-1.58,0-1.94.73-3.11,1-.92,0-1.34.2-2.34.11-.54,0-.48.31-.77.44a1.66,1.66,0,0,0-.78.43c-.34.36-1,.52-1.36.87-1.56.29-2.87.71-4.48,1-.71.1-.93.49-1.36.76a5.4,5.4,0,0,0-1.55.65,5.59,5.59,0,0,0-1.56.65,12.88,12.88,0,0,0-1.55.65,59.6,59.6,0,0,0-7.79,1.74,18,18,0,0,0-4.27.43c-.44-.11-1-.18-1.37-.32a15.6,15.6,0,0,1-7.39.76c-1.26,0-1.24.75-2.14,1a26.64,26.64,0,0,1-9.53-.22c-1,.08-1.28.58-2.72.43a4.9,4.9,0,0,1-2.53-.65c-1.35.23-2.34-.34-3.69-.43a8.48,8.48,0,0,1-2.53-1.31c-1.38-.2-2.52-.55-3.89-.75a17.8,17.8,0,0,1-1.56-1.2c-.5-.37-1.26-.6-1.56-1.08-1.52.27-2,1.13-4.47.86-.44-1.16-1.08-2.22-1.56-3.36a6.66,6.66,0,0,0-1.94-.33,6.4,6.4,0,0,0-3.5-1.19,1.33,1.33,0,0,0-1.17.76c-1.17.75-1.86,1.78-3.3,2.39-.8,0-1-.37-1.76-.44A1.81,1.81,0,0,1,4,31.63a3.75,3.75,0,0,0-1.56.66,4.82,4.82,0,0,0-1.75.54A2,2,0,0,1,0,32.72v119H750Z"/><path class="cls-3" d="M750,187V78.38a6,6,0,0,1-.9-.22c-1.39.07-1.6.8-2.43,1.19a5.58,5.58,0,0,1-2.12,0c-.46.64-1.22,1.12-1.51,1.86a45.93,45.93,0,0,0-4.86.68c-1.08.18-1.35.83-1.82,1.35-1-.3-1-1.11-2.42-1.18a5,5,0,0,0-2.43.34c-.47-.7-1.64-1-1.82-1.87-.84-.49-1-1.37-2.43-1.52-1-.48-1,.57-1.82.67-.62-.44-.64.88-1.82.68-.78-1.82-3.41-2.61-3.94-4.57A11.51,11.51,0,0,0,716,77a5.7,5.7,0,0,0-2.72.5c-1.13.12-1.3-.29-2.43-.16-1.7.34-3.56.6-4.25,1.52-.9-.67-2,0-3,.17-.46.47-1.24-.29-1.52.17a1.81,1.81,0,0,1-1.51,0c-.75.59-1,1.46-1.82,2a5.91,5.91,0,0,1-2.43-.51c-1.94,1.23-3.47,2.69-6.37,3.39-.88,1-1.94,2-2.73,3-1.12.84-1.12,2.3-2.73,2.88-1.07.55-1.4-.35-2.42-.34-.64-.51-1.6.22-2.74,0-1,.38-1.24,1.22-1.82,1.86-.35.71-1.56.93-2.42,1.35a11.82,11.82,0,0,1-4.55-.84c-1.77.14-1.54,1.4-3.34,1.52-2.16.07-2.88-.65-4.85-.68-2.52.18-3.1,1.44-5.47,1.7-1.34,0-.94-.94-1.81-1.19-1.31-.23-2-.8-4-.68-.57-.58-1.76-.82-2.12-1.52-1.12,0-.82.89-2.12.85a5.4,5.4,0,0,0-2.43-1.36,1.53,1.53,0,0,0-1.52.51c-.4.41-1.12-.19-1.21.17-1.86-.31-3.13-1-5.15-1.19a11.08,11.08,0,0,0-5.47,2c-1.64-.13-1.78.58-2.72.84a17.52,17.52,0,0,1-2.73.17c-1.39.07-1.46.89-2.43,1.19-1-.31-1.46,0-2.73,0-2.86-.38-5-1.19-7.59-1.7-.83-.54-1.65-1.11-2.42-1.69a3.43,3.43,0,0,0-2.43-1.52c-1.31,0-2.33.16-2.73.67-1.19-.38-1.29.4-2.43.51-1.63-.21-2.18-1-3.33-1.52-1.7-.16-2.76-.88-3.94-.85,0-.57-.9-.63-1.52-.85-2.23-3.21-4.25-6.54-6.67-9.65-1.57-.31-2-1.24-4.25-1.18a3.52,3.52,0,0,0-1.82-.85c-.2-.36-.59,0-.91,0s-.29-.43-.91-.34c-1.39-.52-1.49-1.76-3.64-1.86-.48-1.09-2.24-1.46-3-2.37-1.33-.18-1,.57-2.12.51-.35-.83-2.06-.89-2.73-1.53-.79.58-1.3,1.31-2.12,1.87-.58.27-1.49-.3-2.43-.34-.83.44-1.34,1.06-2.12,1.52-1,0-.74-.6-1.21-.84-1,0-.4.91-1.52.84-.46.31-2.08,0-1.82.68-.53-.15-.56-.6-.91-.85a3.68,3.68,0,0,0-2.73,2c-2.06.1-2.19,1.27-4.25,1.36a6.1,6.1,0,0,1-2.73-.51c-1.72,0-.78-1.48-2.43-1.52-2-.12-2,.89-3,1.35-.12.44-.9.51-.91,1a1.5,1.5,0,0,0-1.51.51c-1,.27-.92,0-1.52-.34-1.12.11-1.51.73-2.13.68-.77.44-1.37.09-2.73.33a3.34,3.34,0,0,1-2.12-1c-1.71,0-2.11.62-3.64.68-.12-.38-1.66-.17-1.52.16-.77,0-.48-.63-.91-.84a9.26,9.26,0,0,1-2.12.17c-2.28-1.61-5.78-2.53-8.49-3.9-3.47-.88-5.77-2.42-9.1-3.38-3.55-.45-7-1-10.32-1.53-1.17-.09-1.47.3-2.72.17a31.2,31.2,0,0,0-5.77-.68,16.51,16.51,0,0,0-5.46-.67,18.33,18.33,0,0,0-3.94-.85c-4.45.37-8.72.13-11.83-1a20.16,20.16,0,0,1-3.34.17c-1.46,0-1.52-.73-3.34-.5-.87-.3-2.32-.29-3.33-.51-2-.12-3.33.17-5.16.17a38.48,38.48,0,0,0-7.28-.51c-4.4-1.1-8.32-2.47-12.74-3.56-2.15.35-4.35-.17-6.37-.17-.23,0-.32.17-.3.17a31.61,31.61,0,0,0-5.77.17c-2.1-.18-3.36-.83-5.15-1.19-2.17-.19-2.93.4-4.85.34a57.57,57.57,0,0,1-8.19-1.35,63.28,63.28,0,0,1-9.41-.85,15.34,15.34,0,0,0-3,0c-2-.87-5.12-1.09-7.58-1.69-1.2-.52-2.39-1-3.64-1.52a5.06,5.06,0,0,1-2.13-.34,10.91,10.91,0,0,0-3.33.34c-1.57-.32-2.43-1-4.55-1-2.77,0-3.88.88-5.77,1.35s-4.7.43-7,.68c-5.58-.51-11.63.29-14.87-1.52-4.14.19-7.14-1.05-10-1-1.83-.39-2.88-1.21-4.55-1.69-3.33-.51-7.14-.75-9.4-1.87-2.05-.15-4-.38-5.76-.67-5.92-.1-10.33-.46-16.38-.17A15.11,15.11,0,0,0,288,49a17.36,17.36,0,0,0-2.73-.17c-1.11-.11-1.17.36-2.13.34-6.07,0-10.64.23-15.16.34A61.19,61.19,0,0,0,262,51.41c-1.87-.79-5.57.05-7.28-.17s-2.42-.91-4.25-1a8.05,8.05,0,0,0-3.94-1c-.88-.81-2.53-1.19-3.94-1.7-3.11.22-4.55-.5-6.68-.84-2.19,0-3.43.56-5.76.5-1.54,0-2-.59-3.34-.67-1.94-.13-3.08.2-4.85.17a28.37,28.37,0,0,1-5.16.84c-3.17.14-6.36-.53-9.4-.5a39.15,39.15,0,0,0-6.07.67,17.4,17.4,0,0,0-3.94,1c-2-.33-3.36.6-4.55.17-2.36.94-6.12,1.09-7.88,2.37-.58.32-.55-.1-1.52,0a21.54,21.54,0,0,0-2.73,1.18A22.81,22.81,0,0,0,174.29,54c-3.58.2-7.12.43-9.4,1.35-1.8-.41-2.85-1.23-5.16-1.35-2.22.17-4.13.52-6.07.84-2.42-.45-3.61-1.59-5.76-2.2a62.4,62.4,0,0,0-7,0c-2.37.43-3.85,1.35-5.76,2a56.44,56.44,0,0,1-6.07,1.87c-3.1.36-7.55,0-10.61.34-1.6-.3-3.07-.66-4.86-.85a72.87,72.87,0,0,0-11.83,3.39,37.37,37.37,0,0,0-4.85,1.18c-4.28,1.19-9,2.34-13.35,3.73-2.42.4-5.2.59-7.88.84a65.77,65.77,0,0,0-7.89,2.37c-2.14-.12-3.16.39-5.16.34a17.32,17.32,0,0,1-3.94-.51c-1.5.44-3.79,0-5.46,0a35.64,35.64,0,0,0-7.89-1.86c-4.44.06-6.91,1.22-10.61,1.7a20,20,0,0,0-3.64,1.18c-1.4.07-2.31.4-3.64.51a23.67,23.67,0,0,0-6.68,2.88c-3.87.88-7.11,2.12-11.83,2.54-2.58-.08-4.65-.45-7.58-.34-.48,0-.94.12-1.39.2V187Z"/></g></g></svg>